<mxfile host="app.diagrams.net" modified="2021-06-10T06:17:38.963Z" agent="5.0 (Macintosh; Intel Mac OS X 10_13_6) AppleWebKit/537.36 (KHTML, like Gecko) Chrome/90.0.4430.212 Safari/537.36" etag="-af1Va2zYC-0xP61mzh_" version="14.7.6" type="github">
  <diagram id="Is7nYFCBdMyNHaLq8IZW" name="第 1 页">
    <mxGraphModel dx="946" dy="646" grid="1" gridSize="10" guides="1" tooltips="1" connect="1" arrows="1" fold="1" page="1" pageScale="1" pageWidth="827" pageHeight="1169" math="0" shadow="0">
      <root>
        <mxCell id="0" />
        <mxCell id="1" parent="0" />
        <mxCell id="1ueHQHKciYsmYRuD5N_B-18" value="" style="rounded=0;whiteSpace=wrap;html=1;comic=1;fontFamily=Comic Sans MS;fontSize=16;fillColor=#fff2cc;strokeColor=#d6b656;" parent="1" vertex="1">
          <mxGeometry x="80" y="240" width="731" height="300" as="geometry" />
        </mxCell>
        <mxCell id="B47yRz7quK6-dY01HARc-17" style="edgeStyle=orthogonalEdgeStyle;curved=1;orthogonalLoop=1;jettySize=auto;html=1;exitX=1;exitY=0.5;exitDx=0;exitDy=0;entryX=0.523;entryY=0;entryDx=0;entryDy=0;entryPerimeter=0;fillColor=#ffe6cc;strokeColor=#d79b00;" edge="1" parent="1" source="1ueHQHKciYsmYRuD5N_B-19" target="B47yRz7quK6-dY01HARc-1">
          <mxGeometry relative="1" as="geometry" />
        </mxCell>
        <mxCell id="1ueHQHKciYsmYRuD5N_B-19" value="统一 Map" style="rounded=0;whiteSpace=wrap;html=1;comic=1;fillColor=#f5f5f5;strokeColor=#666666;fontColor=#333333;fontSize=16;fontFamily=Comic Sans MS;" parent="1" vertex="1">
          <mxGeometry x="205" y="440" width="575" height="60" as="geometry" />
        </mxCell>
        <mxCell id="1ueHQHKciYsmYRuD5N_B-23" value="统一 Adapter" style="rounded=0;whiteSpace=wrap;html=1;comic=1;fillColor=#dae8fc;strokeColor=#6c8ebf;fontSize=16;fontFamily=Comic Sans MS;" parent="1" vertex="1">
          <mxGeometry x="205" y="360" width="575" height="60" as="geometry" />
        </mxCell>
        <mxCell id="1ueHQHKciYsmYRuD5N_B-24" value="图商" style="text;html=1;strokeColor=none;fillColor=none;align=center;verticalAlign=middle;whiteSpace=wrap;rounded=0;comic=1;fontFamily=Comic Sans MS;fontSize=16;fontStyle=1" parent="1" vertex="1">
          <mxGeometry x="115" y="460" width="40" height="20" as="geometry" />
        </mxCell>
        <mxCell id="1ueHQHKciYsmYRuD5N_B-28" value="适配层" style="text;html=1;strokeColor=none;fillColor=none;align=center;verticalAlign=middle;whiteSpace=wrap;rounded=0;comic=1;fontFamily=Comic Sans MS;fontSize=16;fontStyle=1" parent="1" vertex="1">
          <mxGeometry x="115" y="380" width="50" height="20" as="geometry" />
        </mxCell>
        <mxCell id="1ueHQHKciYsmYRuD5N_B-29" value="Qcs Interface" style="rounded=0;whiteSpace=wrap;html=1;comic=1;fillColor=#d5e8d4;strokeColor=#82b366;fontSize=16;fontFamily=Comic Sans MS;" parent="1" vertex="1">
          <mxGeometry x="205" y="280" width="570" height="60" as="geometry" />
        </mxCell>
        <mxCell id="1ueHQHKciYsmYRuD5N_B-30" value="接口层" style="text;html=1;strokeColor=none;fillColor=none;align=center;verticalAlign=middle;whiteSpace=wrap;rounded=0;comic=1;fontFamily=Comic Sans MS;fontSize=16;fontStyle=1" parent="1" vertex="1">
          <mxGeometry x="115" y="300" width="50" height="20" as="geometry" />
        </mxCell>
        <mxCell id="1ueHQHKciYsmYRuD5N_B-31" value="打车" style="rounded=0;whiteSpace=wrap;html=1;comic=1;fillColor=#ffe6cc;strokeColor=#d79b00;fontSize=16;fontFamily=Comic Sans MS;" parent="1" vertex="1">
          <mxGeometry x="90" y="150" width="350" height="60" as="geometry" />
        </mxCell>
        <mxCell id="1ueHQHKciYsmYRuD5N_B-32" value="业务" style="text;html=1;strokeColor=none;fillColor=none;align=center;verticalAlign=middle;whiteSpace=wrap;rounded=0;comic=1;fontFamily=Comic Sans MS;fontSize=16;fontStyle=1" parent="1" vertex="1">
          <mxGeometry x="20" y="170" width="50" height="20" as="geometry" />
        </mxCell>
        <mxCell id="1ueHQHKciYsmYRuD5N_B-33" value="其他" style="rounded=0;whiteSpace=wrap;html=1;comic=1;fillColor=#ffe6cc;strokeColor=#d79b00;fontSize=16;fontFamily=Comic Sans MS;" parent="1" vertex="1">
          <mxGeometry x="470" y="150" width="340" height="60" as="geometry" />
        </mxCell>
        <mxCell id="1ueHQHKciYsmYRuD5N_B-34" value="Qcs" style="text;html=1;strokeColor=none;fillColor=none;align=center;verticalAlign=middle;whiteSpace=wrap;rounded=0;comic=1;fontFamily=Comic Sans MS;fontSize=16;fontStyle=1" parent="1" vertex="1">
          <mxGeometry x="20" y="380" width="50" height="20" as="geometry" />
        </mxCell>
        <mxCell id="B47yRz7quK6-dY01HARc-1" value="" style="rounded=0;whiteSpace=wrap;html=1;comic=1;fontFamily=Comic Sans MS;fontSize=16;fillColor=#eeeeee;strokeColor=#36393d;" vertex="1" parent="1">
          <mxGeometry x="78" y="560" width="731" height="300" as="geometry" />
        </mxCell>
        <mxCell id="B47yRz7quK6-dY01HARc-2" value="Meituan Map" style="rounded=0;whiteSpace=wrap;html=1;comic=1;fillColor=#f5f5f5;strokeColor=#666666;fontColor=#333333;fontSize=16;fontFamily=Comic Sans MS;" vertex="1" parent="1">
          <mxGeometry x="203" y="760" width="120" height="60" as="geometry" />
        </mxCell>
        <mxCell id="B47yRz7quK6-dY01HARc-3" value="Tencent Map" style="rounded=0;whiteSpace=wrap;html=1;comic=1;fillColor=#f5f5f5;strokeColor=#666666;fontColor=#333333;fontSize=16;fontFamily=Comic Sans MS;" vertex="1" parent="1">
          <mxGeometry x="353" y="760" width="120" height="60" as="geometry" />
        </mxCell>
        <mxCell id="B47yRz7quK6-dY01HARc-4" value="Amap Map" style="rounded=0;whiteSpace=wrap;html=1;comic=1;fillColor=#f5f5f5;strokeColor=#666666;fontColor=#333333;fontSize=16;fontFamily=Comic Sans MS;" vertex="1" parent="1">
          <mxGeometry x="503" y="760" width="120" height="60" as="geometry" />
        </mxCell>
        <mxCell id="B47yRz7quK6-dY01HARc-5" value="Baidu Map" style="rounded=0;whiteSpace=wrap;html=1;comic=1;fillColor=#f5f5f5;strokeColor=#666666;fontColor=#333333;fontSize=16;fontFamily=Comic Sans MS;" vertex="1" parent="1">
          <mxGeometry x="653" y="760" width="120" height="60" as="geometry" />
        </mxCell>
        <mxCell id="B47yRz7quK6-dY01HARc-6" value="Meituan Adapter" style="rounded=0;whiteSpace=wrap;html=1;comic=1;fillColor=#dae8fc;strokeColor=#6c8ebf;fontSize=16;fontFamily=Comic Sans MS;" vertex="1" parent="1">
          <mxGeometry x="203" y="680" width="120" height="60" as="geometry" />
        </mxCell>
        <mxCell id="B47yRz7quK6-dY01HARc-7" value="图商" style="text;html=1;strokeColor=none;fillColor=none;align=center;verticalAlign=middle;whiteSpace=wrap;rounded=0;comic=1;fontFamily=Comic Sans MS;fontSize=16;fontStyle=1" vertex="1" parent="1">
          <mxGeometry x="113" y="780" width="40" height="20" as="geometry" />
        </mxCell>
        <mxCell id="B47yRz7quK6-dY01HARc-8" value="Tencent&lt;br&gt;Adapter" style="rounded=0;whiteSpace=wrap;html=1;comic=1;fillColor=#dae8fc;strokeColor=#6c8ebf;fontSize=16;fontFamily=Comic Sans MS;" vertex="1" parent="1">
          <mxGeometry x="353" y="680" width="120" height="60" as="geometry" />
        </mxCell>
        <mxCell id="B47yRz7quK6-dY01HARc-9" value="AMap&lt;br&gt;Adapter" style="rounded=0;whiteSpace=wrap;html=1;comic=1;fillColor=#dae8fc;strokeColor=#6c8ebf;fontSize=16;fontFamily=Comic Sans MS;" vertex="1" parent="1">
          <mxGeometry x="503" y="680" width="120" height="60" as="geometry" />
        </mxCell>
        <mxCell id="B47yRz7quK6-dY01HARc-10" value="Baidu&lt;br&gt;Adapter" style="rounded=0;whiteSpace=wrap;html=1;comic=1;fillColor=#dae8fc;strokeColor=#6c8ebf;fontSize=16;fontFamily=Comic Sans MS;" vertex="1" parent="1">
          <mxGeometry x="653" y="680" width="120" height="60" as="geometry" />
        </mxCell>
        <mxCell id="B47yRz7quK6-dY01HARc-11" value="适配层" style="text;html=1;strokeColor=none;fillColor=none;align=center;verticalAlign=middle;whiteSpace=wrap;rounded=0;comic=1;fontFamily=Comic Sans MS;fontSize=16;fontStyle=1" vertex="1" parent="1">
          <mxGeometry x="113" y="700" width="50" height="20" as="geometry" />
        </mxCell>
        <mxCell id="B47yRz7quK6-dY01HARc-12" value="统一 Interface" style="rounded=0;whiteSpace=wrap;html=1;comic=1;fillColor=#d5e8d4;strokeColor=#82b366;fontSize=16;fontFamily=Comic Sans MS;" vertex="1" parent="1">
          <mxGeometry x="203" y="600" width="570" height="60" as="geometry" />
        </mxCell>
        <mxCell id="B47yRz7quK6-dY01HARc-13" value="接口层" style="text;html=1;strokeColor=none;fillColor=none;align=center;verticalAlign=middle;whiteSpace=wrap;rounded=0;comic=1;fontFamily=Comic Sans MS;fontSize=16;fontStyle=1" vertex="1" parent="1">
          <mxGeometry x="113" y="620" width="50" height="20" as="geometry" />
        </mxCell>
        <mxCell id="B47yRz7quK6-dY01HARc-14" value="统一&lt;br&gt;地图" style="text;html=1;strokeColor=none;fillColor=none;align=center;verticalAlign=middle;whiteSpace=wrap;rounded=0;comic=1;fontFamily=Comic Sans MS;fontSize=16;fontStyle=1" vertex="1" parent="1">
          <mxGeometry x="10" y="700" width="58" height="20" as="geometry" />
        </mxCell>
      </root>
    </mxGraphModel>
  </diagram>
</mxfile>
